<?xml version="1.0" encoding="UTF-8"?>
<!-- Created with Inkscape (http://www.inkscape.org/) -->
<svg width="512" height="256" version="1.1" viewBox="0 0 135.47 67.733" xmlns="http://www.w3.org/2000/svg">
 <g transform="matrix(1.8591 0 0 1.8591 -58.188 -29.094)">
  <g fill="#ff3131" stroke-width="0">
   <path d="m40.437 30.057c-0.11289 0.13547-0.21449 0.2032-0.4064 0.2032-0.66604 0-1.095-0.28222-1.9643-0.28222-1.0273 0-2.3142 0.56444-2.3142 1.8852 0 1.0386 0.75636 1.445 1.6369 1.7159l1.5014 0.46284c0.76764 0.23707 1.6595 0.49671 1.6595 1.4788 0 0.98214-0.68862 1.5579-2.1449 1.5579-1.445 0-2.4948-1.0386-2.9012-2.3594l-0.1016 0.03387 0.65476 2.8222c0.1016-0.11289 0.21449-0.2032 0.38382-0.2032 0.53058 0 1.2531 0.36124 2.1788 0.36124 1.8514 0 3.0593-0.89182 3.0593-2.6755 0-0.92569-0.58702-1.7724-2.0546-2.2126l-1.5804-0.47413c-0.4064-0.12418-1.1628-0.29351-1.1628-0.83538 0-0.72249 0.79022-0.93698 1.4224-0.93698 1.0837 0 2.1449 0.69991 2.4948 1.7272l0.09031-0.02258z"/>
   <path d="m43.225 36.187c0 0.62089-0.01129 1.1966-0.73378 1.2982v0.1016h2.7093v-0.1016c-0.72249-0.06773-0.73378-0.73378-0.73378-1.3772v-1.9417c1.1966-0.32738 3.9511-1.174 3.9511-2.7432 0-1.095-0.89182-1.2644-1.7836-1.2644h-4.143v0.1016c0.72249 0.09031 0.73378 0.74507 0.73378 1.3772zm1.2418-4.4252c0-0.18062 0.01129-0.62089 0.07902-0.76765 0.13547-0.27093 0.7112-0.31609 0.98213-0.31609 0.94827 0 1.6256 0.18062 1.6256 0.92569 0 1.1176-1.8401 1.7498-2.6868 2.0207z"/>
   <path d="m50.766 32.8h0.27093c1.1966 0 1.9078 0 2.3029 1.3208l0.09031-0.03387-0.44027-2.5287-0.1016 0.03387c0.02258 0.74507-0.72249 0.67733-1.2531 0.67733h-0.86925v-0.64347c0-0.82409 0.25964-0.94827 1.0386-0.94827 1.1628 0 2.3707 0.508 2.8448 1.6482l0.09031-0.03387-0.508-2.2691c-0.16933 0.15804-0.39511 0.13547-0.6096 0.13547h-4.8316v0.1016c0.72249 0.11289 0.73378 0.76764 0.73378 1.3772v4.5494c0 0.39511 0 0.77894-0.2032 1.0273-0.14676 0.18062-0.41769 0.27093-0.53058 0.27093v0.1016h5.1816c0.09031 0 0.19191 0 0.27093 0.01129 0.09031 0.02258 0.16933 0.05645 0.22578 0.13547l0.95956-2.8109-0.11289-0.03387c-0.69991 1.4224-1.7724 2.1788-3.3867 2.1788-1.1402 0-1.1628-0.36124-1.1628-1.2418z"/>
   <path d="m57.765 32.8h0.27093c1.1966 0 1.9078 0 2.3029 1.3208l0.09031-0.03387-0.44027-2.5287-0.1016 0.03387c0.02258 0.74507-0.72249 0.67733-1.2531 0.67733h-0.86924v-0.64347c0-0.82409 0.25964-0.94827 1.0386-0.94827 1.1628 0 2.3707 0.508 2.8448 1.6482l0.09031-0.03387-0.508-2.2691c-0.16933 0.15804-0.39511 0.13547-0.6096 0.13547h-4.8316v0.1016c0.72249 0.11289 0.73378 0.76764 0.73378 1.3772v4.5494c0 0.39511 0 0.77894-0.2032 1.0273-0.14676 0.18062-0.41769 0.27093-0.53058 0.27093v0.1016h5.1816c0.09031 0 0.19191 0 0.27093 0.01129 0.09031 0.02258 0.16933 0.05645 0.22578 0.13547l0.95956-2.8109-0.11289-0.03387c-0.69991 1.4224-1.7724 2.1788-3.3867 2.1788-1.1402 0-1.1628-0.36124-1.1628-1.2418z"/>
   <path d="m62.8 30.158v0.1016c0.72249 0.1016 0.73378 0.75636 0.73378 1.3772v4.5494c0 0.6096-0.01129 1.1853-0.73378 1.2982v0.1016h3.1044c1.1063 0 2.0546-0.02258 2.9464-0.76764 0.79022-0.65476 1.1966-1.6933 1.1966-2.698 0-1.1402-0.53058-2.2578-1.3998-2.9916-0.93698-0.79022-1.9756-0.97084-3.1609-0.97084zm1.9756 1.7046c0-0.73378-0.05644-1.1853 0.84667-1.1853 1.9643 0 3.0706 1.6482 3.0706 3.5221 0 1.7611-0.97084 2.8674-2.7545 2.8674-1.1853 0-1.1628-0.46284-1.1628-1.4563z"/>
   <path d="m73.954 34.155 1.8175-2.9238c0.21449-0.32738 0.53058-0.88053 1.1289-0.97084v-0.1016h-2.19v0.1016c0.8128 0.05644 0.48542 0.66604-0.01129 1.4901l-1.0386 1.7046-1.0499-1.682c-0.34996-0.55316-0.85796-1.4563 0.1016-1.5127v-0.1016h-2.9238v0.1016c0.56444 0.04515 0.84667 0.63218 1.1176 1.0499l1.8062 2.8448v2.032c0 0.63218-0.01129 1.2192-0.73378 1.2982v0.1016h2.7093v-0.1016c-0.72249-0.033867-0.73378-0.69991-0.73378-1.3772z"/>
  </g>
  <g fill="#38b6ff" stroke-width="0">
   <path d="m80.84 37.586c1.6143-0.03387 3.5334-0.45156 3.5334-2.2352 0-0.32738-0.07902-1.095-0.90311-1.7498-0.58702-0.46284-1.174-0.6096-1.5804-0.7112 0.94827-0.508 1.7949-0.94827 1.7949-1.7272 0-1.1063-1.2869-1.1063-1.7949-1.1063h-4.6849v0.22578c0.62089 0.12418 0.68862 0.37253 0.68862 1.2531v4.572c0 0.88053-0.06773 1.1402-0.68862 1.2531v0.22578zm-1.2644-6.2089c0-0.41769 0.03387-0.64347 1.095-0.64347 0.34996 0 1.2869 0 1.2869 0.68862 0 0.45156-0.32738 0.8128-1.0499 1.1402-0.57573 0.25964-0.98213 0.36124-1.3321 0.45156zm0.75636 2.1223c0.49671-0.14676 0.55316-0.15804 0.75636-0.23707 0.92569 0.44027 1.5692 1.174 1.5692 1.9981 0 0.95956-0.80151 1.6595-2.2691 1.6595-0.73378 0-0.8128-0.19191-0.8128-0.66604v-2.5174z"/>
   <path d="m85.186 30.282c0.67733 0.09031 0.69991 0.41769 0.65476 1.2531l-0.16933 3.477c-0.04515 0.99342 0.11289 1.5917 0.79022 2.1449s1.9981 0.59831 2.3255 0.59831c0.54187 0 1.7046-0.07902 2.4723-0.84667 0.42898-0.42898 0.67733-1.0499 0.62089-2.1336l-0.14676-3.2399c-0.03387-0.84667-0.01129-1.1515 0.65476-1.2531v-0.22578h-2.3932v0.22578c0.76764 0.03387 0.86925 0.36124 0.9144 1.2531l0.14676 2.8674c0.04516 0.7112 0 1.2079-0.25964 1.7159-0.28222 0.54187-1.0273 0.77893-1.6369 0.77893-0.41769 0-1.1063-0.11289-1.5014-0.65476-0.29351-0.41769-0.31609-0.85796-0.28222-1.5466l0.16933-3.1609c0.05644-0.89182 0.16933-1.2079 0.89182-1.2531v-0.22578h-3.2512z"/>
   <path d="m97.073 34.087 1.8514-2.6642c0.63218-0.9144 0.8128-1.0499 1.1402-1.1402v-0.22578h-2.3029v0.22578c0.95956 0.06773 0.21449 1.2079-0.07902 1.6143l-0.89182 1.2531-1.0273-1.7385c-0.29351-0.48542-0.32738-0.54187-0.32738-0.73378 0-0.31609 0.36124-0.37253 0.51929-0.39511v-0.22578h-3.4205v0.22578c0.3048 0.06773 0.58702 0.13547 1.1063 0.97084l1.7611 2.8561v1.9981c0 0.85796-0.06773 1.1853-0.76764 1.2531v0.22578h3.2512v-0.22578c-0.75636-0.04516-0.8128-0.4064-0.8128-1.2531z"/>
  </g>
  <path d="m50.22 25.784h32.549" color="#000000" fill="#ff3131" stroke-linecap="round" stroke-linejoin="round" stroke-miterlimit="28.9" stroke-width="1.0583" style="-inkscape-stroke:none"/>
  <path d="m50.221 25.256a0.52917 0.52917 0 0 0-0.5293 0.5293 0.52917 0.52917 0 0 0 0.5293 0.5293h32.549a0.52917 0.52917 0 0 0 0.5293-0.5293 0.52917 0.52917 0 0 0-0.5293-0.5293z" color="#000000" fill="#ff3131" stroke-linecap="round" stroke-linejoin="round" stroke-miterlimit="28.9" style="-inkscape-stroke:none"/>
  <path d="m85.212 25.784-3.6618 2.1167v-4.2333z" color="#000000" fill="#ff3131" fill-rule="evenodd" stroke-width=".42333pt" style="-inkscape-stroke:none"/>
  <path d="m85.247 41.949h-32.549" color="#000000" fill="#ff3131" stroke-linecap="round" stroke-linejoin="round" stroke-miterlimit="28.9" stroke-width="1.0583" style="-inkscape-stroke:none"/>
  <path d="m52.697 41.42a0.52917 0.52917 0 0 0-0.5293 0.5293 0.52917 0.52917 0 0 0 0.5293 0.5293h32.549a0.52917 0.52917 0 0 0 0.5293-0.5293 0.52917 0.52917 0 0 0-0.5293-0.5293z" color="#000000" fill="#38b6ff" stroke-linecap="round" stroke-linejoin="round" stroke-miterlimit="28.9" style="-inkscape-stroke:none"/>
  <g fill="#38b6ff" fill-rule="evenodd">
   <path d="m50.255 41.949 3.6618-2.1167v4.2333z" color="#000000" stroke-width=".42333pt" style="-inkscape-stroke:none"/>
   <path d="m54.199 39.344-4.5078 2.6055 0.42188 0.24414 4.0859 2.3613zm-0.56445 0.97656v3.2559l-2.8164-1.627z" color="#000000" style="-inkscape-stroke:none"/>
  </g>
 </g>
</svg>
